<svg version="1" xmlns="http://www.w3.org/2000/svg" width="933.333" height="933.333" viewBox="0 0 700.000000 700.000000"><path d="M481 171.9c-3.6 3.8-14.4 15.1-24 25.1-9.6 10-19.9 20.8-22.9 23.9-2.9 3.1-13.8 14.4-24.1 25.1-10.3 10.7-21.1 22-24 25-2.9 3-12.2 12.8-20.7 21.7l-15.5 16.2-9.8-10.2c-5.3-5.6-11.7-12.2-14-14.7-2.4-2.5-12.5-13.1-22.5-23.5C293.4 250 282.9 239 280 236c-2.9-3-13.4-14.1-23.5-24.5-10-10.5-19.7-20.6-21.5-22.5-8-8.8-22.3-23-22.9-23-.4 0-7.5 7.1-15.7 15.7s-17.6 18.4-20.9 21.8c-5 5.2-21.1 22-45.9 47.9-5.1 5.3-11.1 11.6-44.1 46.1-11 11.4-21.8 22.7-24 25-2.2 2.4-12.4 13-22.8 23.7-10.3 10.7-19.8 20.8-21.1 22.3l-2.4 2.8 6.1 6.2c3.4 3.4 14.1 14.4 23.7 24.5s19.1 20 21 22c11.7 12.2 42.2 44 46 48 2.5 2.6 13.1 13.6 23.6 24.6 10.5 10.9 20.8 21.8 23 24 2.1 2.3 11.6 12.1 20.9 21.9 9.4 9.7 20.5 21.3 24.8 25.8l7.8 8.2 11.2-11.6c6.2-6.4 15.9-16.5 21.7-22.6 5.8-6 19.1-19.9 29.6-30.9 10.5-10.9 21.5-22.5 24.5-25.6 3-3.1 12.7-13.2 21.5-22.5 8.9-9.2 19.1-19.9 22.6-23.6l6.4-6.8 8.6 8.8c4.7 4.8 10.5 10.8 12.8 13.3 2.3 2.5 8.3 8.8 13.4 14 24.1 25.2 49.9 52.1 55.2 57.7 41.1 43 47.3 49.3 48.2 49.3.3 0 2.4-1.9 4.5-4.3 2.2-2.3 11.8-12.3 21.3-22.2 9.5-9.9 19.4-20.3 22-23 2.6-2.8 13.2-13.8 23.5-24.5s20.8-21.8 23.4-24.5c2.6-2.8 13-13.6 23-24 10.1-10.5 20-20.8 22-23 2.1-2.2 12.2-12.7 22.4-23.4 10.2-10.6 22.3-23.1 26.7-27.8l8.1-8.5-4.1-4.2c-3.5-3.6-26.6-27.6-47.1-49.1-3.1-3.3-13.9-14.5-23.9-24.9-9.9-10.4-19.2-20.2-20.6-21.6-1.4-1.5-11.3-11.8-22.1-23.1-10.8-11.2-22.2-23.1-25.4-26.4-3.1-3.3-13.2-13.9-22.5-23.5-9.2-9.6-20.1-21-24.2-25.3l-7.4-7.8-6.4 7zM322.8 316.7c5 5.4 9.1 10.1 9 10.5-.3.5-30.2 32-38.5 40.4-3.5 3.5-4.3 2 10 17.1l6 6.3-2.8 3.7c-5.1 6.9-18.3 19.1-26.7 24.6-20.9 13.9-41.3 20.1-66.3 20-14.4 0-17.6-.4-28-2.9-36.5-9.1-66.2-34.3-80.8-68.4-5.7-13.4-8.2-23.4-9.2-37.5l-.5-7 7.8-8.1c4.3-4.5 8.4-8.3 9-8.5.7-.2 46.3-.3 101.4-.2l100.3.1 9.3 9.9zm274.7-.5c23.8 24.7 48.6 50.6 50.4 52.6l1.9 2.3-4.1 4.3c-23.6 24.5-56.9 59.2-69.2 72.1-3.6 3.8-25.3 26.4-53 55.4-5.5 5.7-12.2 12.8-15 15.6-11.1 11.6-20.8 21.5-21.1 21.5-.1 0-.9-.6-1.6-1.4-1.3-1.3-34.9-36.3-41.8-43.6-1.9-2-11.8-12.3-22-22.9-10.2-10.6-20.7-21.6-23.4-24.5-2.7-2.8-12.6-13.2-22-23-9.4-9.9-22.3-23.4-28.7-30-16.9-17.6-21.9-23-21.9-23.8 0-.4 1.9-2.7 4.3-5.1 3.8-4 26.5-27.8 47.6-49.9l8.3-8.7 10.7-.3c5.8-.2 51.3-.2 101.1-.1l90.4.1 9.1 9.4z"/><path d="M168 355c-4.9 2.5-7.6 5.8-8.9 10.5-2.5 9.4 2.4 17.6 11.8 20.1 15.1 3.8 26.1-13 16.9-25.9-4.1-5.7-13.5-8-19.8-4.7zM244.9 353.9c-4.6 1.5-7.8 4.2-9.9 8.5-3.7 7.7-2.1 14.9 4.5 20.3 11.5 9.5 28.4-.7 26.1-15.9-1.4-9.1-11.8-15.6-20.7-12.9zM441.1 355.1c-13.9 6.2-11.9 26.6 3 30.6 16.4 4.5 27.8-16.3 15.3-27.8-5.3-4.8-11.6-5.8-18.3-2.8zM517.6 354.1c-3 .8-8.1 5.1-9.7 8.1-2.1 3.9-2 10.2.3 14.7 2.8 5.4 6.2 8.1 11.8 9.1 14.6 2.7 24.6-13.9 15.8-26.3-3.6-5-11.6-7.5-18.2-5.6z"/></svg>