<?xml version="1.0" standalone="no"?>
<!DOCTYPE svg PUBLIC "-//W3C//DTD SVG 20010904//EN"
 "http://www.w3.org/TR/2001/REC-SVG-20010904/DTD/svg10.dtd">
<svg version="1.0" xmlns="http://www.w3.org/2000/svg"
 width="600.000000pt" height="600.000000pt" viewBox="0 0 600.000000 600.000000"
 preserveAspectRatio="xMidYMid meet">
<metadata>
Created by potrace 1.11, written by Peter Selinger 2001-2013
</metadata>
<g transform="translate(0.000000,600.000000) scale(0.100000,-0.100000)"
fill="#000000" stroke="none">
<path d="M2625 4360 l-371 -371 -304 305 c-168 168 -308 306 -312 306 -4 0
-360 -353 -792 -785 l-785 -785 785 -785 c432 -432 788 -785 792 -785 4 0 144
138 311 306 l305 305 373 -373 373 -373 373 373 373 373 310 -309 309 -308
787 788 787 788 -785 785 c-431 432 -788 785 -792 785 -4 0 -144 -138 -312
-306 l-304 -304 -371 370 c-203 203 -372 370 -375 370 -3 0 -172 -167 -375
-370z m-782 -387 l198 -197 -373 -373 -373 -373 373 -373 373 -373 -203 -202
-203 -202 -575 575 -575 575 575 575 c316 316 577 572 580 570 3 -3 94 -94
203 -202z m3097 -1518 l-576 -576 -202 203 -203 202 373 373 373 373 -373 373
-373 373 203 202 202 203 576 -576 575 -575 -575 -575z"/>
</g>
</svg>
